PathFileType	4	(X/Y/Z)	./resultDataOpenSim/trcMotMarkerGrf/sub10/qtm-02-01.trc
DataRate	CameraRate	NumFrames	NumMarkers	Units	OrigDataRate	OrigDataStartFrame	OrigNumFrames
250.000000	250.000000	14	24	m	250.000000	404	461
Frame#	Time	L.Toe.Tip			R.Toe.Tip			L.Ankle.Lat			R.Ankle.Lat			L.Ankle.Med			R.Ankle.Med			L.Heel			R.Heel			L.Knee.Lat			R.Knee.Lat			L.Knee.Med			R.Knee.Med			L.Thigh.Upper			R.Thigh.Upper			L.ASIS			R.ASIS			V.Sacral			L.Acromium			R.Acromium			C7			L.Elbow			R.Elbow			L.Wrist.Lat			R.Wrist.Lat
		X1	Y1	Z1	X2	Y2	Z2	X3	Y3	Z3	X4	Y4	Z4	X5	Y5	Z5	X6	Y6	Z6	X7	Y7	Z7	X8	Y8	Z8	X9	Y9	Z9	X10	Y10	Z10	X11	Y11	Z11	X12	Y12	Z12	X13	Y13	Z13	X14	Y14	Z14	X15	Y15	Z15	X16	Y16	Z16	X17	Y17	Z17	X18	Y18	Z18	X19	Y19	Z19	X20	Y20	Z20	X21	Y21	Z21	X22	Y22	Z22	X23	Y23	Z23	X24	Y24	Z24

404	1.612	1.5515432	0.11048987	-0.10187981	0.95144665	0.038523472	0.039674539	1.419302	0.088546292	-0.13001716	0.81110435	0.0629832	0.073667969	1.4250944	0.11672671	-0.049641275	0.8355457	0.088850828	-0.0096314559	1.3699688	0.04035131	-0.0836102	0.75815083	0.044339049	0.026389144	1.2997186	0.4611693	-0.15413404	0.9571751	0.44030837	0.12267689	1.3227705	0.43962875	-0.033726609	0.97904767	0.44209839	-0.0049379343	1.156141	0.82150278	-0.19890941	1.0358078	0.84743559	0.1732325	1.1846244	0.93240938	-0.12242105	1.1304437	0.93497994	0.12091804	0.96396428	0.92952499	-0.046343651	1.0719408	1.3957819	-0.18472436	1.071438	1.3977521	0.14107063	0.98354787	1.4202829	-0.025377743	0.93616261	1.0868635	-0.22868615	1.1224947	1.0476863	0.22565356	0.97886978	0.85315849	-0.27832643	1.369533	0.99673072	0.20463362
405	1.616	1.5652293	0.11392068	-0.10182395	0.95140329	0.038637866	0.039586304	1.4327677	0.089992625	-0.13118795	0.81131978	0.063654732	0.073511867	1.4375169	0.11761546	-0.050772666	0.83595691	0.089252243	-0.0098546414	1.3839472	0.040342675	-0.085329295	0.7582279	0.045327854	0.026250084	1.3076151	0.46046527	-0.15408848	0.96064638	0.43970556	0.1222375	1.3296411	0.4384085	-0.033523196	0.98317404	0.44126532	-0.0052352965	1.1634442	0.81976492	-0.19860238	1.0399992	0.84638331	0.17250862	1.1914326	0.93110568	-0.1217315	1.1348946	0.93384545	0.12152675	0.97021029	0.92762038	-0.047721979	1.0782765	1.3943079	-0.18486545	1.0774758	1.3962957	0.14074158	0.98947185	1.4189039	-0.025668248	0.94135739	1.0860674	-0.22825613	1.1305247	1.0466028	0.2251705	0.98156019	0.85221411	-0.27858866	1.3779644	0.99808749	0.20247101
406	1.62	1.5780997	0.11711124	-0.10163317	0.95139073	0.038675329	0.039535616	1.4456127	0.091380899	-0.13227417	0.81157532	0.064402364	0.073375173	1.4492917	0.11836322	-0.051885689	0.83639038	0.089714825	-0.010053432	1.39731	0.040416855	-0.087131078	0.75832842	0.046410042	0.02614825	1.3155953	0.4599125	-0.15406211	0.96423182	0.43909154	0.12179639	1.3365039	0.43733157	-0.033414418	0.98736331	0.44042521	-0.0055509869	1.1707719	0.81806297	-0.19829656	1.0442842	0.84532499	0.17181392	1.1982234	0.92980749	-0.12105125	1.1394444	0.93275828	0.12212873	0.97653886	0.92573681	-0.049193201	1.0846065	1.3928928	-0.18504556	1.0835015	1.394869	0.14039039	0.99539002	1.4175438	-0.025987692	0.94661642	1.0852547	-0.22783814	1.1385161	1.0455868	0.22466373	0.98442929	0.85129413	-0.2788686	1.3862649	0.99937557	0.20031588
407	1.624	1.589703	0.12005588	-0.10122672	0.95141327	0.03862997	0.039503053	1.45785	0.092603104	-0.13326378	0.81188966	0.065222106	0.073248318	1.4605517	0.11900723	-0.052946173	0.83686497	0.090242227	-0.010239838	1.4100483	0.040541947	-0.088942285	0.758458	0.047593828	0.026069343	1.3236052	0.4594769	-0.15408105	0.96793142	0.43847057	0.12135881	1.3434018	0.43641661	-0.033450525	0.99161864	0.43958381	-0.0058770563	1.1781232	0.81641751	-0.19797888	1.048638	0.84426565	0.17112379	1.2050177	0.92852124	-0.12039785	1.1440483	0.93172038	0.1227309	0.98294611	0.92392411	-0.050715726	1.0909366	1.3915308	-0.18526723	1.0894936	1.3934846	0.14003324	1.0013159	1.4162019	-0.026336293	0.95192956	1.0844318	-0.22743989	1.1464254	1.044613	0.22411724	0.98746577	0.8503996	-0.27916387	1.3944325	1.0005921	0.19816819
408	1.628	1.6001022	0.12272134	-0.10073765	0.95146346	0.038537776	0.039461497	1.4695053	0.093614357	-0.13418448	0.81226923	0.066110516	0.073130614	1.4713549	0.11954857	-0.053943082	0.83739407	0.090834059	-0.01041679	1.4221525	0.040669746	-0.0906934	0.75862274	0.04888342	0.02600466	1.3316032	0.45913424	-0.15415336	0.97173612	0.43784677	0.12091684	1.3503557	0.43566931	-0.033671421	0.99594913	0.43874204	-0.0062090246	1.1855081	0.81484329	-0.1976407	1.0530675	0.84322446	0.17044177	1.2118285	0.92725085	-0.11977398	1.1487156	0.93071347	0.12330333	0.98937995	0.92225414	-0.052247891	1.097265	1.390217	-0.18553154	1.095441	1.3921488	0.13967441	1.0072631	1.4148821	-0.026724421	0.95730558	1.0836102	-0.2270624	1.154239	1.0436796	0.22352513	0.99067542	0.84953445	-0.27947942	1.4024637	1.0017409	0.19603541
409	1.632	1.6098425	0.12501087	-0.1004518	0.95153402	0.038429134	0.039403839	1.4805971	0.094433051	-0.13508523	0.81269927	0.067070097	0.073027528	1.4816995	0.11996405	-0.054874758	0.83797222	0.091493227	-0.010575354	1.4336205	0.040753493	-0.092349276	0.75882864	0.050279393	0.025950473	1.3395641	0.45887158	-0.15427176	0.97564329	0.43722157	0.12047191	1.3573355	0.43505291	-0.034029715	1.0003668	0.43790163	-0.0065424717	1.1929323	0.81334708	-0.19728899	1.0575881	0.84221725	0.16978186	1.2186579	0.92599891	-0.11917078	1.1534543	0.92972701	0.1238394	0.99570394	0.92078083	-0.053787017	1.1035848	1.3889577	-0.18583887	1.1013555	1.3908627	0.13930436	1.0132437	1.4135949	-0.027160501	0.96275334	1.0827982	-0.22670819	1.1619662	1.0427923	0.22288468	0.99407672	0.84870373	-0.27982356	1.4103547	1.0028286	0.19392555
410	1.636	1.6193633	0.12683453	-0.10053228	0.95161905	0.038322612	0.039340887	1.491113	0.095077013	-0.13597997	0.81315916	0.068111337	0.072945352	1.4915623	0.12023119	-0.055740607	0.8385838	0.092227498	-0.010703379	1.4444458	0.040754635	-0.093895462	0.75907917	0.051785428	0.025909607	1.3474707	0.45868202	-0.15442258	0.9796547	0.43659437	0.12003614	1.3642209	0.43450018	-0.034391952	1.0048808	0.43706435	-0.0068686387	1.2003907	0.81193511	-0.19694122	1.0622011	0.84124483	0.16914419	1.2255086	0.92477286	-0.11858315	1.1582693	0.92876852	0.12435257	1.0017816	0.91953201	-0.055355216	1.1098905	1.3877627	-0.18619113	1.1072519	1.3896265	0.13891244	1.0192668	1.4123494	-0.027643974	0.96827216	1.081999	-0.22638183	1.1696222	1.0419426	0.222204	0.99767802	0.84790952	-0.28019697	1.4181028	1.0038558	0.19183753
411	1.64	1.6287003	0.12815174	-0.10093909	0.95171238	0.038232318	0.039287155	1.5010149	0.095528104	-0.1368356	0.81364237	0.069246921	0.072883814	1.5009154	0.12034292	-0.056541247	0.83922527	0.093044634	-0.010798962	1.4546045	0.040651753	-0.095318045	0.75937471	0.053409504	0.025886962	1.3553108	0.45856143	-0.15459275	0.98376122	0.43596287	0.11961349	1.3707618	0.43395749	-0.034673533	1.0094977	0.43622981	-0.0071801552	1.2078668	0.81062062	-0.19661307	1.0668965	0.84029927	0.16851103	1.2323893	0.92358004	-0.11801047	1.1631651	0.92784656	0.12485387	1.0076724	0.9184921	-0.056952244	1.1161862	1.3866338	-0.18658528	1.1131318	1.388444	0.13849725	1.0253333	1.4111476	-0.028170601	0.97385664	1.0812167	-0.22608557	1.1772041	1.0411022	0.22153723	1.0014734	0.8471497	-0.28059207	1.4257076	1.0048169	0.18976854
412	1.644	1.6377065	0.12891964	-0.10158257	0.95180916	0.038167712	0.039248462	1.5102682	0.095755195	-0.13761468	0.81416032	0.070480662	0.072837173	1.5097336	0.12029761	-0.057276769	0.83991144	0.093948252	-0.010872583	1.4640669	0.040436677	-0.096585225	0.75971391	0.055158445	0.025884719	1.363076	0.45850718	-0.15476931	0.98794878	0.43532506	0.11919898	1.3766996	0.43340445	-0.034912168	1.0142279	0.43539621	-0.0074783571	1.2153341	0.80942552	-0.19631572	1.0716763	0.83937504	0.16786383	1.2393084	0.92242134	-0.11744194	1.1681459	0.92695788	0.12534352	1.0136692	0.9175963	-0.058544698	1.1224824	1.3855666	-0.18701264	1.1189913	1.3873247	0.1380625	1.0314345	1.4099893	-0.028740117	0.97949932	1.0804551	-0.22581906	1.1846515	1.0402508	0.22101841	1.005456	0.84642219	-0.28100221	1.4331724	1.005708	0.18772504
413	1.648	1.646256	0.12910288	-0.1023745	0.95190822	0.038129895	0.039220199	1.5188569	0.095741953	-0.13830392	0.81473294	0.071805795	0.072803439	1.5179975	0.12008356	-0.057945072	0.84065967	0.094938398	-0.010933094	1.4728184	0.040098233	-0.097661786	0.76009713	0.057037167	0.025908154	1.3707643	0.45851551	-0.15493973	0.99221849	0.43468431	0.11878806	1.3821207	0.43284906	-0.035181541	1.0190829	0.43456069	-0.0077680904	1.2227635	0.80838107	-0.19606393	1.0765702	0.83847502	0.16719922	1.2462682	0.92129675	-0.11685341	1.1732291	0.92609313	0.12581001	1.020047	0.9167728	-0.060109381	1.1287825	1.3845586	-0.18746725	1.1248301	1.3862775	0.13760856	1.0375565	1.4088781	-0.029354997	0.98519511	1.0797143	-0.22558468	1.1918369	1.0394231	0.22080532	1.0096242	0.84572714	-0.28142664	1.4405024	1.0065264	0.18571964
414	1.652	1.6542071	0.12881591	-0.10313491	0.95201208	0.038111971	0.039194565	1.5267801	0.095488724	-0.13890926	0.81537525	0.073218073	0.072790691	1.5256954	0.11968334	-0.0585467	0.84147748	0.096014106	-0.010976913	1.4808619	0.039617572	-0.098546818	0.76053221	0.059050443	0.025968267	1.3783858	0.45857941	-0.15509852	0.996584	0.434052	0.11837406	1.3875608	0.43232339	-0.035501934	1.0240694	0.43371929	-0.0080481393	1.2301331	0.80752463	-0.19587675	1.0816224	0.83760832	0.16652827	1.2532683	0.92021393	-0.1162264	1.1784381	0.92524682	0.1262392	1.0268489	0.91598571	-0.061653147	1.1350815	1.3836108	-0.18794812	1.1306538	1.3853038	0.13713235	1.0436878	1.4078198	-0.030017755	0.99094878	1.0789903	-0.22539176	1.1986754	1.0386943	0.22089429	1.0139789	0.84506565	-0.2818678	1.4477004	1.0072698	0.18376441
415	1.656	1.6613828	0.12833336	-0.10360284	0.95212587	0.038105198	0.039167494	1.5340473	0.09500433	-0.13944572	0.816095	0.074725524	0.07281418	1.5328294	0.1190862	-0.059088702	0.84236683	0.097175818	-0.010993093	1.4882041	0.038982386	-0.099284753	0.76103311	0.061201889	0.026070752	1.3859624	0.45868835	-0.15524636	1.001053	0.43344217	0.11794826	1.3935309	0.43186374	-0.035853939	1.0291912	0.43286859	-0.0083127142	1.237433	0.80688763	-0.19576713	1.0868472	0.83677846	0.1658624	1.2603121	0.9191886	-0.11556447	1.1837796	0.92441801	0.12662699	1.0339309	0.91523215	-0.063164739	1.1413805	1.3827244	-0.18845343	1.1364683	1.3844022	0.13663501	1.0498243	1.4068168	-0.030729895	0.99677311	1.0782742	-0.22525375	1.2052716	1.0380985	0.22102071	1.0185209	0.84443809	-0.2823278	1.454765	1.0079373	0.18186825
416	1.66	1.6677596	0.1277888	-0.10369527	0.95225653	0.038105664	0.039139189	1.5406831	0.094308451	-0.13993762	0.81690379	0.076343481	0.072886301	1.5394173	0.11828964	-0.059581178	0.84333094	0.098428318	-0.010972918	1.4948491	0.038200609	-0.099938692	0.76161074	0.063494052	0.026209938	1.3935235	0.45882791	-0.15538348	1.0056262	0.43286282	0.11750874	1.4001002	0.43148651	-0.036224158	1.0344521	0.43200609	-0.0085579934	1.2446647	0.80648346	-0.19573936	1.0922058	0.83597411	0.16520103	1.2674038	0.91823869	-0.11488836	1.1892477	0.92360324	0.12697671	1.0411103	0.91452153	-0.064578263	1.1476911	1.3818975	-0.1889795	1.1422711	1.3835786	0.13612499	1.0559712	1.4058675	-0.031483892	1.0026764	1.077558	-0.22518004	1.2118718	1.0376098	0.22086827	1.0232525	0.84384255	-0.28280928	1.4616938	1.0085271	0.1800344
417	1.664	1.673628	0.12696209	-0.1037283	0.95241274	0.038116096	0.039109332	1.5467405	0.093436919	-0.14042846	0.81782068	0.078088956	0.07300779	1.5454797	0.11729587	-0.060032734	0.84437594	0.09977936	-0.010915161	1.5008031	0.037295635	-0.10055867	0.76227027	0.065930698	0.026378476	1.4011009	0.45898063	-0.15551531	1.0103063	0.43231456	0.11705929	1.4070577	0.4311912	-0.036605851	1.0398553	0.43112987	-0.0087857246	1.2518338	0.80630255	-0.19579662	1.0976465	0.83517602	0.16453448	1.2745373	0.9173797	-0.11422142	1.1948476	0.92279279	0.12728517	1.0482696	0.91386517	-0.065824257	1.1540222	1.3811255	-0.18952564	1.1480532	1.3828427	0.13561129	1.0621399	1.4049688	-0.032258508	1.0086538	1.0768514	-0.22516901	1.2186709	1.0371985	0.22035369	1.0281759	0.84327624	-0.28331847	1.4684889	1.009032	0.17826147
